<mxfile host="app.diagrams.net" modified="2024-02-02T15:55:48.344Z" agent="Mozilla/5.0 (Macintosh; Intel Mac OS X 10_15_7) AppleWebKit/537.36 (KHTML, like Gecko) Chrome/120.0.0.0 Safari/537.36" version="23.1.1" etag="N3bIWZV0clA6Z_hlhgVg" type="github">
  <diagram name="Page-1" id="CCC6EZhz2dn8EaMjRabW">
    <mxGraphModel>
      <root>
        <mxCell id="0" />
        <mxCell id="1" parent="0" />
      </root>
    </mxGraphModel>
  </diagram>
</mxfile>
